<svg xmlns="http://www.w3.org/2000/svg" xmlns:xlink="http://www.w3.org/1999/xlink" width="200" height="200" viewBox="0 0 1386 1021" fill="none" xmlns:v="https://vecta.io/nano"><style><![CDATA[.B{fill:#263238}.C{fill:#f5f5f6}.D{fill:#f0aa8f}.E{fill:#a36957}.F{fill:#e0e0e0}.G{fill:#52667b}]]></style><g clip-path="url(#A)"><path d="M307.712 281.595L49.148 454.38l254.694 380.382 258.564-172.785-254.694-380.382z" class="C"/><g class="F"><path d="M428.818 644.059l-2.995 17.955-128.577-18.416 2.996-18.185 128.576 18.646z"/><path d="M364.07 579.143l18.434 2.762-20.508 126.378-18.434-2.532 20.508-126.608zM245.631 418.466c.231.23-25.807 17.955-57.836 39.364l-58.528 38.443c-.23-.231 25.808-17.956 57.837-39.364l58.527-38.443zm95.164-23.71c.231.23-42.859 29.465-96.317 64.915l-97.008 63.995c-.231-.23 42.859-29.465 96.317-64.916l97.008-63.994zM359.92 423.3c.231.231-42.859 29.465-96.317 64.916l-97.008 63.994c-.231-.23 42.859-29.465 96.317-64.915L359.92 423.3z"/><use xlink:href="#B"/><path d="M397.94 480.159c.23.23-42.859 29.465-96.317 64.915l-97.009 63.995c-.23-.231 42.859-29.466 96.317-64.916l97.009-63.994z"/></g><path d="M1172.21 536.468L955.016 681.607l213.824 319.343 217.19-145.137-213.82-319.345z" class="C"/><g class="F"><path d="M1274.01 840.877l-2.53 15.192-107.84-15.653 2.3-15.193 108.07 15.654z"/><path d="M1219.63 786.55l15.44 2.072-17.28 106.351-15.44-2.302 17.28-106.121zm-99.54-135.125c.23.23-21.66 15.193-48.62 33.148l-49.31 32.228c-.23-.23 21.66-15.193 48.62-33.148l49.31-32.228zm79.96-20.027c.23.23-35.95 24.861-80.65 54.787l-81.34 53.636c-.23-.231 35.95-24.862 80.88-54.787l81.11-53.636zm15.9 23.94c.23.23-35.95 24.861-80.65 54.787l-81.34 53.636c-.23-.231 35.94-24.862 80.88-54.787l81.11-53.636zm16.13 23.941c.23.23-35.95 24.861-80.65 54.786l-81.34 53.636c-.23-.23 35.94-24.861 80.88-54.787l81.11-53.635zm15.89 23.94c.23.23-35.94 24.861-80.64 54.787l-81.34 53.635c-.23-.23 35.94-24.861 80.87-54.786l81.11-53.636z"/></g><path d="M828.796 295.663L591.879 169.081L405.296 517.61L642.213 644.192L828.796 295.663Z" class="C"/><g class="F"><path d="M601.638 535.175l-14.977 5.064-38.251-105.43 14.978-5.064 38.25 105.43z"/><path d="M624.679 459.44l5.53 15.193-104.843 35.911-5.53-15.193 104.843-35.911zm74.427-155.382c-.231.461-24.195-12.2-53.689-27.853s-53.228-28.775-52.997-29.235 24.194 12.2 53.688 27.853l52.998 29.235zm56.914 62.613c-.23.461-39.863-20.487-88.713-46.729l-88.252-47.881c.23-.461 39.863 20.487 88.713 46.73l88.252 47.88zm-14.054 26.243c-.231.46-39.864-20.487-88.714-46.73L565 298.303c.23-.46 39.863 20.488 88.713 46.73l88.253 47.881zm-14.055 26.012c-.231.461-39.863-20.487-88.713-46.73l-88.253-47.88c.231-.461 39.864 20.487 88.714 46.729l88.252 47.881zm-13.828 26.012c-.231.461-39.864-20.487-88.713-46.729l-88.253-47.881c.231-.461 39.864 20.487 88.713 46.73l88.253 47.88z"/></g><path opacity=".2" d="M715.237.199h-5.991v101.287h5.991V.199z" fill="#000"/><g fill="#fcb9a4"><path d="M573.523 223.95h277.661s-25.577-122.464-140.789-122.464c-102.769 0-136.872 122.464-136.872 122.464z"/><path d="M715.233.199h-5.991v101.287h5.991V.199z"/></g><path d="M1330.24 1012.6c0 .23-297.94.69-665.236.69S0 1013.06 0 1012.6c0-.23 297.708-.69 665.234-.69l665.006.69z" class="B"/><g fill="#ff9f81"><path d="M73.735 868.5c7.834.23 15.208 4.604 20.277 10.359s8.295 13.121 10.369 20.718c3.917 14.502 1.613 31.767-2.765 46.269-15.669-5.525-25.577-22.329-29.955-31.307-6.913-14.042-11.06-43.507 2.074-46.039zm50.463 95.071c-5.069-7.136-5.069-17.034-1.152-24.861s11.521-13.351 19.817-15.884c3.917-1.151 8.295-1.611 11.751.461 3.226 2.072 4.378 6.215 4.148 9.898-.461 3.683-2.304 7.136-4.609 10.129-7.834 10.359-17.051 19.106-29.955 20.257z"/></g><g class="B"><path d="M126.044 1012.14l-.691-2.99-1.613-8.29c-1.153-6.903-3.226-16.802-1.613-27.851 1.382-10.819 5.76-20.257 10.369-25.782 2.304-2.762 4.378-4.834 5.991-5.985.691-.691 1.382-1.151 1.843-1.381s.691-.461.691-.461c.231.231-3.686 2.533-8.064 8.287-4.379 5.525-8.526 14.733-9.909 25.552s.461 20.488 1.383 27.621c.461 3.46.922 6.45 1.382 8.29.231 1.84.231 2.99.231 2.99z"/><path d="M78.805 890.599s.231.46.691 1.151l1.613 3.453c1.383 2.992 3.456 7.596 5.761 13.121 4.839 11.049 11.06 26.242 17.743 43.507 6.682 17.034 12.212 32.688 16.129 43.967 2.074 5.752 3.457 10.362 4.609 13.582.461 1.61.922 2.76 1.152 3.68s.461 1.38.23 1.38c0 0-.23-.46-.46-1.15-.461-.92-.692-2.07-1.383-3.68l-4.839-13.351-16.59-43.968-17.513-43.507-5.3-13.121c-.691-1.381-1.152-2.762-1.383-3.683-.461-.921-.691-1.381-.461-1.381z"/></g><path d="M107.148 979.915c-9.217-15.884-26.729-26.703-44.933-27.854-4.608-.23-10.369.461-12.443 4.604s.691 9.208 3.917 12.661c13.134 14.272 35.485 19.336 53.689 11.97" fill="#ff9f81"/><g class="B"><path d="M69.359 964.492h2.996c.922 0 2.074.23 3.456.46l4.378.921c1.613.46 3.456.69 5.3 1.381 1.843.46 3.917 1.381 5.991 2.302 4.148 1.842 8.295 4.144 12.443 7.366s7.604 6.676 10.369 10.129c1.383 1.842 2.535 3.453 3.687 5.294 1.152 1.612 1.843 3.223 2.765 4.835.922 1.381 1.382 2.99 1.843 4.14s.922 2.31 1.152 3.23c.461 1.84.922 2.76.692 2.76s-1.383-3.92-4.378-9.9c-.922-1.381-1.613-2.993-2.765-4.604-.922-1.611-2.305-3.223-3.687-5.064-2.765-3.453-6.222-6.906-10.139-9.899-4.148-2.992-8.295-5.525-12.212-7.366-2.074-.921-3.917-1.612-5.761-2.302s-3.687-1.151-5.3-1.612c-6.682-1.611-10.83-1.841-10.83-2.071zM1115.25 243.056c-6.68 1.612-10.14 9.438-10.83 16.344s.23 14.272-2.76 20.488c-3.23 7.136-11.06 12.43-11.29 20.257-.23 4.834 2.76 9.208 2.53 14.042-.23 7.827-8.29 13.812-8.52 21.638-.23 5.525 3.45 11.05 2.53 16.575-.69 4.373-4.15 7.826-5.53 11.97-2.76 8.287 2.77 17.265 10.14 22.099 8.29 5.294 18.89 6.445 28.11 3.453s17.05-10.129 20.74-19.107c4.15-9.898 3.23-21.178 2.3-31.767-2.76-33.378-4.84-66.757-6.22-100.365"/></g><path d="M1095.67 360.917c-.23-.23 1.84-.691 2.99-3.683.69-1.382.92-3.453.69-5.525 0-2.302-.92-4.604-1.61-7.366s-1.84-5.985-1.15-9.438c.69-3.684 3.22-6.446 5.53-9.438 1.15-1.382 2.3-2.993 3.22-4.835.7-1.611.93-3.683.46-5.524-1.15-3.683-4.83-6.446-6.68-10.819-.92-2.072-.92-4.604-.46-6.676s1.38-4.144 2.31-5.985c1.84-3.683 3.68-7.136 4.6-10.82 1.62-7.366.93-14.272 2.08-20.027.92-5.755 3.45-10.128 5.76-12.2 1.15-1.151 2.3-1.842 2.99-2.072.7-.23 1.16-.46 1.16-.46 0 .23-1.62.69-3.92 2.992-2.31 2.302-4.38 6.446-5.3 11.971-.46 2.762-.46 5.985-.69 9.207-.23 3.453-.23 7.137-1.15 10.82-.7 3.913-2.77 7.366-4.61 11.049-1.85 3.683-3.23 7.827-1.85 11.74 1.39 3.913 5.07 6.676 6.69 11.05.69 2.071.46 4.373-.46 6.215-.93 1.841-2.08 3.453-3.23 5.064-2.3 2.993-4.84 5.755-5.3 8.978-.69 3.223.23 6.215 1.15 8.977.69 2.763 1.62 5.295 1.62 7.597s-.24 4.374-.93 5.755c-.69 1.611-1.61 2.532-2.3 2.992-1.15.231-1.61.461-1.61.461z" fill="#455a64"/><g class="D"><path d="M1077.46 415.474l-20.73 59.851-86.643 4.604-14.517 32.227 90.56 9.208c17.97 7.366 38.71-1.611 45.39-20.027l24.19-67.448-38.25-18.415zm179.5 564.671l-64.97-208.328c-1.16-5.985 23.04-151.008 26.03-188.53l-85.95 3.222v.691l-36.4 2.072 32.72 412.278h39.63l-3.92-136.963c24.43 65.375 59.22 131.902 59.22 131.902l33.64-16.344z"/></g><g class="E"><path d="M1165.72 913.849l-.46-45.809c-.46 2.762-15.21-38.673-14.75-41.206 0-1.381 15.21 87.015 15.21 87.015z"/><path d="M1148.66 807.038s-.23.92-.23 2.532v6.906c0 1.381.23 2.992.46 4.604l.93 5.294c.69 3.683 1.84 7.827 3.22 11.97 2.77 8.287 5.99 15.654 8.3 20.948 1.15 2.302 2.07 4.604 2.76 6.215l1.15 2.302s-.23-.92-.69-2.302c-.46-1.611-1.38-3.683-2.3-6.445-2.07-5.295-5.07-12.661-7.84-20.948-1.38-4.143-2.53-8.057-3.22-11.74-.46-1.841-.69-3.683-.92-5.294s-.46-3.223-.46-4.604c-.23-2.763-.46-5.065-.46-6.676-.47-1.842-.47-2.762-.7-2.762z"/></g><path d="M1127.7 1003.63v-3.688l40.55-1.841v15.189l-2.53.23c-11.06.69-56.46 2.54-64.06.23-8.06-2.3 26.04-10.12 26.04-10.12z" class="G"/><g class="B"><path d="M1168.94 1012.6h-.69c-.69 0-1.15 0-2.07.23l-7.37.23c-6.23.23-14.75.46-24.2.46s-17.97 0-24.19-.23c-3 0-5.3-.23-7.38-.23h-2.07 2.07c2.08 0 4.38 0 7.38.23l24.19.23c9.45 0 17.97-.23 24.2-.46 2.99 0 5.29-.23 7.37-.23h2.07c.23-.23.69-.23.69-.23z"/><path d="M1114.56 1013.75c-.23 0-.23-1.84-1.38-3.45-1.15-1.84-2.54-2.76-2.54-2.76 0-.23 1.85.69 3 2.53s1.15 3.91.92 3.68zm11.99-5.98s-.69-.69-1.39-1.61c-.69-.92-.92-1.84-.92-1.84s.69.69 1.38 1.61l.93 1.84zm3.22-1.61s-.69-.23-1.38-.92-1.15-1.15-1.15-1.38c0 0 .69.23 1.38.92s1.15 1.15 1.15 1.38zm2.08-3.92c0 .23-.92.23-2.08.23-1.15 0-2.07 0-2.07-.23s.92-.23 2.07-.23c.92 0 2.08 0 2.08.23zm.69-2.758c0 .23-.92.688-2.31.688-1.38 0-2.53-.228-2.53-.228 0-.23 1.15 0 2.3-.23 1.39 0 2.31-.23 2.54-.23z"/><path d="M1125.16 1004.32s-.92.23-2.53 0c-.69 0-1.85-.23-2.77-.69-.46-.24-.92-.24-1.61-.7l-.69-.69c0-.46 0-.92.46-.92 2.53-1.378 4.84 0 5.76 1.38.46.69.69 1.39.92 1.62v.69s-.23-.92-1.15-2.31c-.46-.69-1.15-1.15-2.3-1.38-.93-.23-2.31-.23-3 .23-.46.23-.23.69.23 1.15l1.38.69 2.77.7c1.38.23 2.53 0 2.53.23z"/><path d="M1124.47 1004.32s-.46-.69-.23-1.85c0-.46.23-1.15.69-1.84.46-.46 1.15-1.379 2.08-1.379.69 0 .92.691.69 1.149a1.76 1.76 0 0 1-.46 1.15c-.46.69-.93 1.15-1.16 1.61-.92.93-1.38 1.16-1.61 1.16.23 0 .69-.46 1.38-1.39.46-.46.69-.92 1.16-1.61.46-.46.69-1.608 0-1.608-.7 0-1.39.688-1.62 1.148-.46.46-.69 1.15-.69 1.61-.46 1.16-.23 1.85-.23 1.85zm43.55-2.77s-1.15 0-2.99.23c-1.85.23-4.38.92-6.46 2.77-2.07 1.84-3.45 4.14-4.14 5.75-.7 1.84-.7 2.99-.7 2.76v-.92c0-.46.23-1.38.47-2.07.46-1.84 1.84-4.14 4.14-5.98 2.31-1.85 4.84-2.54 6.69-2.77h2.3c.46 0 .69.23.69.23zm-19.35 7.83c0 .23-2.54.46-6 .46-3.22 0-5.99-.46-5.99-.46 0-.23 2.54 0 5.99 0h6zm7.83-.23s-.23.46-.46 1.15-.46 1.15-.46 1.15c-.23 0-.23-.69 0-1.38.23-.46.69-.92.92-.92zm3-3.68s-.23.46-.7.92c-.46.46-.92.69-.92.69s.23-.46.69-.92.7-.69.93-.69zm4.14-1.61c0 .23-.46.23-1.15.23-.69.23-.92.46-1.15.46 0 0 .23-.69.92-.92.92-.24 1.38 0 1.38.23zm3-.93c0 .23-.23.23-.46.46-.23.24-.69.24-.69 0 0-.23.23-.23.46-.46h.69z"/></g><path d="M1222.63 1000.17l-1.61-3.451 36.18-18.185 6.45 13.811-2.31 1.151c-9.9 5.065-50.46 25.554-58.29 26.474-8.53 1.15 19.58-19.8 19.58-19.8z" class="G"/><g class="B"><path d="M1263.65 991.425s-.23.23-.69.46-1.16.691-1.85.921l-6.45 3.223c-5.53 2.762-13.13 6.441-21.89 10.361-8.52 3.91-16.36 7.36-22.12 9.67l-6.68 2.76c-.69.23-1.38.46-1.85.69-.46.23-.69.23-.69.23s.23-.23.69-.23c.47-.23 1.16-.46 1.85-.69 1.84-.69 4.15-1.84 6.68-2.99l22.12-9.67 21.89-10.131c2.54-1.151 4.84-2.302 6.68-3.223.7-.23 1.16-.691 1.85-.921.23-.46.46-.46.46-.46z"/><path d="M1214.8 1014.67c-.23 0-.92-1.38-2.77-2.53-1.61-1.15-3.45-1.38-3.45-1.61s1.84-.23 3.68 1.15c1.85 1.38 2.54 2.99 2.54 2.99zm8.29-10.35s-.92-.23-1.84-.93c-.92-.69-1.61-1.15-1.61-1.38 0 0 .92.23 1.84.92.92.7 1.61 1.39 1.61 1.39zm2.31-2.77c0 .23-.69 0-1.62-.23-.92-.23-1.61-.69-1.61-.69 0-.23.69 0 1.61.23.93.23 1.62.46 1.62.69zm.23-4.371c0 .231-.69.691-1.85 1.151-1.15.461-1.84.691-2.07.691 0-.23.69-.691 1.84-1.151 1.16-.46 2.08-.921 2.08-.691zm-.46-2.762s-.69.921-1.85 1.611c-1.15.691-2.3.921-2.3.691s.92-.46 2.07-1.151l2.08-1.151z"/><path d="M1220.33 1001.78l-2.31 1.15c-.69.23-1.61.46-2.76.69-.46 0-1.15.23-1.61 0-.24 0-.7-.23-.93-.46s-.23-.69 0-1.15c1.62-2.299 4.61-1.84 5.99-1.15.7.46 1.16.92 1.39 1.15.23.46.46.69.46.69s-.69-.92-2.08-1.61c-.69-.23-1.61-.46-2.53-.46-.92.23-2.07.69-2.77 1.38-.23.46 0 .92.7.92h1.61c.92 0 1.84-.23 2.76-.46 1.16-.46 2.08-.92 2.08-.69z"/><path d="M1219.87 1002.01s-.69-.46-.92-1.61c-.24-.458-.24-1.149-.24-2.07.24-.69.47-1.611 1.39-2.071.69-.231 1.84.92 2.07 1.381s-.69.23-.69.46c0 .691-.23 1.381-.46 1.842-.46 1.608-.92 2.068-1.15 2.068 0-.23.46-.69.69-1.84.23-.458.23-1.149.23-1.84s0-1.611-.69-1.381-.92 1.151-1.15 1.612c-.24.69 0 1.381 0 1.839.46 1.15.92 1.61.92 1.61zm38.48-20.254s-1.15.461-2.77 1.382c-1.61.92-3.45 2.532-4.84 5.064-1.15 2.532-1.38 5.064-1.38 6.906.23 1.841.69 2.992.46 2.992 0 0-.23-.23-.23-.69-.23-.461-.46-1.151-.46-2.072-.23-1.842 0-4.604 1.15-7.136 1.39-2.532 3.46-4.374 5.07-5.295l2.08-.92c.69-.231.92-.231.92-.231zm-14.52 14.963s-2.07 1.611-5.07 2.993c-2.99 1.378-5.53 2.068-5.53 2.068 0-.23 2.54-1.15 5.3-2.299l5.3-2.762zm7.38-3.223c.23 0 0 .691 0 1.151v1.151c-.23 0-.46-.46-.46-1.151s.23-1.381.46-1.151zm1.15-4.604c.23 0 0 .461-.23 1.151-.23.461-.46.921-.69.921-.24 0 0-.46.23-1.151s.46-1.151.69-.921zm2.99-3.453c0 .231-.46.461-.92.691-.46.46-.69.921-.92.921s0-.691.46-1.151c.92-.461 1.38-.461 1.38-.461zm2.54-1.841s0 .46-.23.69-.46.461-.7.231c0 0 0-.461.24-.691.23-.23.69-.46.69-.23z"/></g><g fill="#3a70b4"><path d="M1212.49 514.918l-6.68-82.18 34.56.691s1.62-12.201-3.45-38.673c-3.23-16.344-14.06-26.243-26.27-32.228v-.23l-1.15-.23c-15.44-7.136-31.8-8.287-31.8-8.287l-42.4.46s-32.49-4.143-50.46 19.106c-6.91 8.978-28.34 69.98-28.34 69.98l50.92 24.631-4.84-33.839s.92 24.401 4.15 32.228c1.84 4.373 6.68 17.725 6.68 17.725l-.69 40.514 99.77-9.668z"/><path d="M1189.22 420.998l-6.45 26.703h59.45l-3.92-44.889-49.08 18.186z"/></g><g class="B"><path d="M1242.22 447.701c0-.23-3-.461-7.84-.691a406.74 406.74 0 0 0-19.12-.46c-7.38 0-14.29.46-19.13.69-4.84.461-7.83.691-7.83.921s2.99 0 7.83 0c4.84-.23 11.52-.23 19.13-.46h19.12c4.84.23 7.84.23 7.84 0z"/><path d="M1186.46 402.583c-.23 0-.23 2.532-.23 6.905 0 4.144.23 10.129.46 16.344.23 6.446.46 12.201.92 16.344.23 4.144.46 6.906.69 6.906s.23-2.532.23-6.906c0-4.143-.23-10.128-.46-16.344-.23-6.445-.46-12.2-.92-16.344-.23-4.373-.46-6.905-.69-6.905z"/></g><g opacity=".3"><path d="M1132.3 425.832s13.14 98.064 50.47 95.301c0 0 16.82-.23 22.12-11.279v-4.374l-72.59-79.648z" fill="#000"/></g><g opacity=".3"><path d="M1186.46 408.337l-6.92 47.881 4.61 8.518 7.37-16.575h-3.22l-1.84-39.824z" fill="#000"/></g><g class="B"><path d="M1113.87 484.072s-.46-.691-.92-2.302c-.69-1.611-1.38-3.683-2.3-6.446-1.85-5.524-3.92-13.121-5.76-21.638-1.62-8.517-2.54-16.574-2.77-22.329-.23-2.762-.23-5.295-.23-6.906s0-2.532.23-2.532.23 3.453.92 9.208c.46 5.755 1.39 13.581 3.23 22.099 1.61 8.517 3.69 16.113 5.3 21.638l1.84 6.446c.23 1.841.46 2.532.46 2.762zm14.98 28.084c-.23 0-1.15-2.072-2.08-4.834-.92-2.763-1.15-5.065-.92-5.065s1.15 2.072 2.08 4.834c.69 2.763 1.15 5.065.92 5.065zm5.07-.461c-.23 0-1.38-2.992-1.38-7.136s.92-7.366 1.15-7.136c.23 0 0 3.223 0 7.136.23 3.914.69 7.136.23 7.136z"/><path d="M1108.8 468.879c-.23.23-11.98-5.295-26.5-12.661-14.51-7.136-26.03-13.351-26.03-13.582.23-.23 11.98 5.295 26.49 12.661 14.52 7.136 26.04 13.352 26.04 13.582z"/></g><path d="M1129.77 362.298l.23-23.94s-14.98-2.993-17.51-22.56c-2.54-18.646 4.38-62.613 4.38-62.613 21.89-8.287 44.47-.691 59.45 16.804l-3.69 94.611c-.46 11.049-10.14 19.336-21.89 18.876-11.98-.691-21.2-10.129-20.97-21.178z" class="D"/><g class="B"><path d="M1115.71 288.175c0 1.381.93 2.532 2.31 2.532s2.53-.921 2.53-2.302-.92-2.532-2.3-2.532c-1.15 0-2.3.921-2.54 2.302zm-.92-3.223c.23.23 2.31-.921 4.84-.921 2.77 0 4.61 1.381 4.84 1.151s-.23-.69-.92-1.381c-.92-.69-2.31-1.381-3.92-1.381s-3.22.46-3.92 1.151c-.69.46-.92 1.151-.92 1.381zm28.34 4.834c0 1.382.92 2.532 2.31 2.532 1.38 0 2.53-.92 2.53-2.301s-.92-2.533-2.3-2.533c-1.15 0-2.31 1.151-2.54 2.302zm0-3.223c.23.231 2.31-.92 4.84-.92 2.77 0 4.61 1.381 4.84 1.151s-.23-.691-.92-1.382c-.92-.69-2.3-1.381-3.92-1.381-1.61 0-3.22.461-3.91 1.151-.93.691-1.16 1.151-.93 1.381zm-10.37 19.797c0-.23-1.61-.46-4.37-.921-.69 0-1.39-.23-1.39-.69-.23-.461.23-1.151.46-2.072l2.08-5.295c2.99-7.366 5.3-13.581 4.84-13.581-.23-.23-3 5.755-5.99 13.121-.69 1.842-1.39 3.453-2.08 5.295-.23.69-.69 1.611-.46 2.762.23.46.69.921 1.15 1.151s.93.23 1.16.23c2.76 0 4.6.23 4.6 0z"/></g><path d="M1130 338.357s13.13 1.151 26.5-6.215c0 0-6.68 13.351-26.27 11.05l-.23-4.835z" class="E"/><g class="B"><path d="M1151.66 278.737c-.46.921-2.54.46-4.84 0s-4.38-.921-4.61-1.842 2.07-2.302 5.3-1.611c3 .69 4.84 2.762 4.15 3.453zm-26.96-3.914c-.23.921-2.31 1.381-4.84 1.381s-4.84 0-5.07-.92 1.84-2.532 4.84-2.532c3.23-.231 5.3 1.151 5.07 2.071z"/></g><path d="M1132.77 312.806c-.46-.23-1.16.23-1.39.691-.23.69-.23 1.381.46 1.841.47.461 1.39.461 1.85 0s.69-1.381.46-1.841c-.23-.691-1.15-.921-1.84-.691" class="E"/><g class="B"><path d="M1133.46 313.036c.23 0-.46-.69-1.62-.46-.46.23-1.15.69-1.38 1.381s0 1.842.92 2.532c.93.691 1.85.461 2.54 0s.92-1.381.92-1.841c-.23-1.151-1.15-1.382-1.15-1.151s.23.46.23 1.381c0 .46-.23.69-.46.921s-.92.23-1.15 0a1.72 1.72 0 0 1-.47-1.151c0-.461.23-.691.7-.921.23-.691.69-.461.92-.691zm33.87-20.027c-2.3 5.295-8.07 9.668-7.14 15.423.46 3.683 2.99 7.366 2.53 11.05-.69 4.834-5.53 8.056-6.22 12.66-.92 5.755 4.84 10.359 6.91 15.654 3.23 7.826-.92 16.804-.92 25.091-.23 13.121 11.06 25.322 23.96 26.243 5.3.46 11.3-1.151 13.83-5.755 2.3-3.683 1.84-8.518 3.23-12.661 2.07-6.215 7.83-10.589 9.21-17.035 2.31-11.51-11.75-21.178-10.83-32.918.46-5.064 3.46-9.438 4.84-14.272 1.85-6.445.23-13.582-4.15-18.646-3.45-4.143-8.52-6.906-11.52-11.279-3.45-5.065-3.45-11.51-4.61-17.495-2.99-14.503-14.05-27.164-27.88-32.228-14.05-5.064-30.41-2.532-42.16 6.446 0 0-3.46 15.193 12.21 17.725s22.81-.461 24.65 5.755c0 0-1.84 7.366 4.61 14.272 6.22 7.136 12.21 5.755 9.45 11.97z"/></g><g fill="#455a64"><path d="M1192.21 398.209s-.46 0-1.38-.23-2.3-.461-3.92-1.151c-3.22-1.151-8.06-3.914-11.98-8.978-2.07-2.532-3.92-5.525-5.07-9.208-1.38-3.453-2.07-7.596-2.07-11.74s.46-8.747 1.61-13.121c.69-2.302 1.38-4.374 2.31-6.676.92-2.302 1.84-4.373 2.53-6.675s.46-4.604 0-6.676c-.69-2.302-1.61-4.374-2.53-6.215-.93-2.072-2.08-4.144-2.77-6.216s-.92-4.373-.46-6.675c.92-4.374 3.46-7.597 5.07-10.82s2.07-6.675 2.07-9.898c-.23-6.215-2.99-10.819-5.07-13.582-2.3-2.762-3.91-3.683-3.91-3.913 0 0 1.84.921 4.37 3.453 2.31 2.532 5.3 7.366 5.53 13.812.24 3.223-.46 6.906-2.07 10.359s-4.15 6.675-4.84 10.589c-.92 3.913 1.15 8.057 3.23 12.2.92 2.072 2.07 4.144 2.76 6.446s.69 5.064 0 7.366-1.84 4.604-2.53 6.676c-.92 2.071-1.61 4.373-2.08 6.445-1.15 4.374-1.84 8.747-1.61 12.891 0 8.287 2.77 15.653 6.68 20.488 3.92 5.064 8.3 7.596 11.53 8.977 2.76 1.842 4.6 2.072 4.6 2.072z"/><path d="M1189.91 282.19s-1.15.23-3.45.46c-2.31.231-5.53.461-9.45-.23s-8.76-2.532-11.98-7.366c-1.62-2.302-2.08-5.064-3.23-7.827-.92-2.532-2.76-4.834-5.3-6.445-5.07-3.223-11.06-3.683-16.13-4.144-5.3-.69-10.14-1.611-13.36-4.143-3.46-2.302-5.07-5.525-5.53-7.597-.23-1.151-.23-2.072-.23-2.532 0-.691.23-.921.23-.921.23 0-.23 1.151.46 3.453.46 2.072 2.3 4.834 5.53 7.136 3.22 2.302 7.83 3.223 13.13 3.683 5.07.691 11.29.921 16.59 4.374 2.77 1.612 4.84 4.374 5.76 7.136s1.62 5.525 3 7.597c2.76 4.374 7.37 6.215 11.29 7.136 3.92.69 7.14.69 9.22.69 2.3-.69 3.45-.69 3.45-.46zm-5.76-18.876s-.92.46-2.76.46a17.1 17.1 0 0 1-7.38-1.611c-1.38-.691-2.99-1.612-4.38-2.993-1.38-1.381-2.53-2.993-3.68-4.834-2.08-3.453-4.15-7.827-8.3-9.668s-8.98-1.382-12.9-1.151c-4.15.46-7.84.46-11.06 0-3.23-.461-5.53-1.842-6.92-2.993-.69-.69-1.15-1.151-1.38-1.611s-.46-.691-.23-.691c0 0 .69.691 2.08 1.842 1.38 1.151 3.68 2.072 6.68 2.532 2.99.46 6.68.23 10.83-.23 4.15-.231 8.75-.921 13.59 1.151 2.31.92 4.15 2.762 5.53 4.604 1.39 1.841 2.31 3.913 3.46 5.524.92 1.842 2.07 3.453 3.23 4.604 1.15 1.151 2.53 2.302 3.91 2.993 2.77 1.381 5.3 1.841 6.92 1.841 1.84.231 2.76.231 2.76.231z"/><path d="M1199.13 393.375c-.23 0 .69-1.612 1.38-4.374.92-2.762 1.62-7.136 1.62-12.431-.24-5.294-1.39-11.509-4.84-17.495-1.62-2.992-4.15-5.754-6.23-8.977-.92-1.612-1.84-3.453-2.3-5.525s-.23-4.144.46-6.215c1.38-3.914 3.69-7.367 4.15-11.05.69-3.683-1.15-6.906-3-9.898-.92-1.611-1.84-2.993-2.53-4.604s-1.15-3.223-1.38-4.834c-.46-3.223 0-6.215.23-8.748.69-5.294.23-9.668-1.16-12.2-1.15-2.762-2.76-3.453-2.76-3.683l.23.23c.23 0 .46.23.69.46.69.461 1.38 1.382 2.08 2.763 1.38 2.762 2.07 7.136 1.61 12.43-.23 2.763-.46 5.525-.23 8.518s1.84 5.985 3.68 8.977c.93 1.612 1.85 2.993 2.54 4.834s.92 3.914.69 5.755c-.46 3.914-3 7.367-4.15 11.28-.69 1.842-.92 3.683-.46 5.525s1.15 3.453 2.08 5.064c2.07 3.223 4.6 5.985 6.22 8.978 3.45 6.215 4.84 12.66 4.84 18.185 0 5.295-.93 9.668-1.85 12.431-.46 1.381-.92 2.532-1.38 3.222 0 .921-.23 1.382-.23 1.382z"/></g><path d="M1105.35 822.231s-15.44-146.865-16.36-201.192c-.93-54.326 24.42-107.962 24.42-107.962l99.31-4.143s19.59 55.017 20.05 78.266c.69 44.889-11.98 89.317-10.6 124.997l3.23 110.034" class="B"/><g fill="#fafafa"><path d="M1228.62 641.526s-.46.461-1.61 1.151c-.23.231-.69.461-.92.691l-.93.921c-.69.69-1.61 1.381-2.3 2.532-3.23 3.913-5.53 10.819-7.83 19.567-1.16 4.373-2.54 9.207-5.07 14.042-.69 1.151-1.39 2.301-2.31 3.452-.46.461-.92 1.151-1.38 1.612l-1.61 1.611c-2.08 2.072-4.61 3.683-7.38 4.834-5.53 2.533-11.75 3.683-17.51 6.446s-10.14 8.287-12.67 14.502c-2.77 6.216-4.38 12.891-6.92 18.876-2.3 5.985-5.29 11.971-10.36 15.654-4.84 3.913-11.06 4.834-16.36 5.064s-10.37.23-14.75.921-8.3 2.072-11.06 4.143c-2.77 2.072-4.38 4.834-5.07 7.367-.69 2.302-.69 4.373-.46 5.755s.69 1.841.46 1.841c0 0-.46-.69-.69-1.841-.46-1.382-.46-3.453.23-5.755.69-2.533 2.3-5.295 5.3-7.597 2.76-2.302 6.91-3.913 11.29-4.604 4.61-.69 9.45-.69 14.75-.921 5.3-.46 11.06-1.381 15.66-5.064 4.61-3.453 7.61-9.208 9.91-15.193 2.31-5.985 3.92-12.661 6.92-18.876 2.76-6.445 7.37-12.2 13.36-14.963 5.99-2.992 12.21-4.143 17.74-6.445 2.77-1.151 5.3-2.532 7.15-4.604l1.38-1.381a7 7 0 0 0 1.15-1.612c.92-.921 1.38-2.302 2.07-3.453 2.54-4.604 3.92-9.438 5.07-13.811 2.31-8.748 4.84-15.884 8.3-19.797.69-1.151 1.61-1.842 2.3-2.532.46-.231.69-.691.92-.921.24-.23.7-.461.93-.691 1.84-.69 2.3-.921 2.3-.921zm.69-67.907s0 .69.23 2.071c0 1.382-.23 3.223-.69 5.525-1.15 4.834-4.61 11.28-11.29 17.265-3.22 2.992-7.14 5.985-11.52 8.517s-9.45 5.064-14.29 8.057c-5.07 2.762-10.13 5.985-14.74 10.359-4.61 4.143-8.07 9.668-11.06 15.653-3.23 5.755-5.99 11.74-9.68 17.035-1.84 2.532-3.92 4.834-6.22 6.906-2.31 2.071-4.84 3.683-7.61 5.064-5.3 2.762-10.6 4.374-15.43 5.985-4.84 1.611-9.45 2.762-13.6 4.604-3.92 1.611-7.6 3.453-10.37 5.525-2.76 2.071-5.07 4.143-6.45 5.985-3 3.683-3.69 6.445-3.92 6.445 0 0 .23-.69.69-1.841s1.39-2.993 3-4.834c1.38-2.072 3.69-4.144 6.45-6.216 2.77-2.072 6.45-4.143 10.37-5.755 4.15-1.841 8.76-3.222 13.59-4.604 4.84-1.611 10.14-3.222 15.21-5.985 2.54-1.381 5.07-2.992 7.38-4.834 2.3-2.072 4.37-4.143 5.99-6.675 3.68-5.065 6.45-11.05 9.44-16.805 3.23-5.985 6.69-11.51 11.3-15.883 4.6-4.374 9.9-7.597 14.97-10.359l14.52-7.827c4.38-2.532 8.29-5.294 11.52-8.287 6.45-5.755 10.14-12.2 11.29-16.804 1.15-5.525.69-8.287.92-8.287zm-139.86 55.017s0-.231-.24-.461c0-.23-.23-.69-.46-1.381-.23-1.151-.46-3.223.23-5.525 1.39-4.604 6.46-10.589 14.52-13.351 4.15-1.381 8.76-2.302 13.6-3.453 4.83-1.381 9.9-2.993 13.82-7.136 1.84-2.072 3.46-4.374 4.84-6.906s2.3-5.295 3.46-8.287c2.07-5.755 3.68-11.97 7.37-17.725 3.46-5.755 9.22-9.668 14.98-11.74s11.75-2.993 17.28-4.374c5.53-1.151 10.6-2.762 14.98-5.064 4.38-2.532 7.83-5.755 10.14-9.208 5.07-6.906 6.22-14.042 6.45-18.646 0-4.834-.69-7.366-.46-7.366 0 0 .92 2.532.92 7.366s-1.15 11.97-6.22 19.106c-2.54 3.453-5.99 6.906-10.37 9.438s-9.68 4.144-15.21 5.295c-5.53 1.381-11.29 2.302-17.05 4.374s-11.06 5.754-14.52 11.279c-3.45 5.525-5.07 11.74-7.14 17.495-1.15 2.993-2.08 5.755-3.46 8.517s-3.22 5.065-5.07 7.136c-4.14 4.144-9.44 5.986-14.28 7.137s-9.45 2.071-13.6 3.452c-8.06 2.763-13.13 8.288-14.51 12.661-.7 2.302-.7 4.144-.47 5.295.23 1.611.47 2.072.47 2.072zm131.34 124.305s0 .461.23 1.382c0 .92 0 2.302-.46 4.143-.93 3.453-3.46 8.287-8.76 12.431-2.54 2.071-5.53 3.913-9.22 5.524-3.45 1.612-7.37 2.763-11.52 3.914s-8.29 2.532-12.44 4.604c-4.15 1.841-8.07 4.604-11.29 8.287-3.46 3.453-6.22 7.366-9.45 10.819s-6.91 6.215-10.6 8.287c-7.6 4.144-15.44 5.525-21.89 5.755-6.45 0-11.75-1.381-14.98-2.532-1.61-.691-2.99-1.151-3.91-1.612l-1.39-.69s.46.23 1.39.46c.92.461 2.07.921 3.91 1.381 3.46 1.151 8.53 2.302 14.98 2.072s14.06-1.611 21.43-5.755c3.69-2.072 7.14-4.834 10.37-8.057 3.23-3.453 5.99-7.136 9.45-10.819 3.45-3.683 7.37-6.676 11.75-8.517 4.15-2.072 8.52-3.223 12.67-4.604 4.15-1.151 7.84-2.302 11.52-3.913 3.46-1.382 6.45-3.223 8.99-5.065 5.07-3.913 7.83-8.517 8.76-11.97.69-3.453.23-5.525.46-5.525z"/></g><path d="M1209.5 447.931l-19.13.461c-1.15 6.445-4.37 10.819-4.37 10.819-16.13-27.854-28.58-65.146-31.57-80.108.46-1.612.92-3.223 1.61-5.065.69-2.071 0-6.215-.23-8.517-.46-3.223-1.38-7.827-1.84-9.898-.93-6.446-1.85-7.367-4.15-6.676-3 .921 1.15 17.725-1.15 18.185-1.39.231-3-5.524-3.46-10.358s-2.53-19.337-4.15-20.258c-2.3-1.381-4.38.921-3.68 5.525.69 4.834 1.38 18.876-1.16 19.106-2.53.231-4.6-23.94-4.6-23.94s.46-5.295-2.54-5.064c-5.3.23-1.15 25.551-.69 28.083.23 1.612-2.31 2.072-2.54.231s-1.61-24.171-6.91-23.941c-4.15.23 3.23 20.948.92 25.782-2.3 4.834-3.91-16.344-7.83-16.113-1.38 0-2.54.46.23 12.43 1.38 6.446 5.53 18.416 9.22 28.084 6.22 33.148 33.18 139.729 75.81 120.163 23.73-10.82 33.41-59.161 33.41-59.161l-21.2.23z" class="D"/><path d="M1127.47 362.068h.46c.23 0 .92-.46.92-1.381 0-1.381-.23-3.453-.69-6.216-.23-2.762-1.15-5.985-1.15-9.898l.23-6.215c0-1.151 0-2.302.23-3.223.23-1.151.92-2.302 1.61-2.072.92 0 1.38.691 1.61 1.612s.47 2.071.23 2.992c.47 5.985 1.16 12.431 2.54 19.106.23.921.46 1.612.69 2.533.23.46.23.92.46 1.381.23.23.23.46.46.69s.46.461.92.691c.93 0 1.16-.691 1.39-1.151s.23-.921.46-1.381c.23-.921.23-1.842.46-2.763.23-3.683.23-7.596-.23-11.509 0-2.072-.69-3.914-.23-5.755.23-.921.46-1.842 1.15-2.072.23-.23.69-.23.92-.23s.46.23.46.23c.23.23.23 0 .23.23.69 1.612 1.15 3.683 1.62 5.755.46 2.072.69 4.144 1.15 6.215.23 2.072.69 4.144.92 6.446.23 2.072.46 4.374 1.15 6.445.23 1.151.69 2.072 1.15 3.223.23.46.46 1.151.93 1.611.23.231.69.691 1.38.461s.92-.691.92-.921c.46-1.381.23-2.532.23-3.683s-.23-2.302-.23-3.453c-.23-1.842-.46-3.913-.46-5.755v-2.762c0-.461.23-.921.23-1.151s.23-.23.23-.23h.23c1.61-.691 2.07 1.381 2.53 3.222.47 1.842.7 3.683.93 5.525.69 3.683 1.38 7.136 1.84 10.589.23 1.611.23 3.453-.23 5.064s-1.15 3.223-1.61 4.834v.231.23c2.76 12.43 6.68 23.48 10.37 33.378 3.68 9.899 7.37 18.416 10.59 25.322 3.23 6.906 6 12.2 8.07 15.883.92 1.842 1.84 2.993 2.3 4.144.46.921.93 1.381.93 1.381l-.7-1.381c-.46-1.151-1.38-2.532-2.3-4.144l-7.83-16.113c-3.23-6.906-6.69-15.423-10.14-25.322-3.46-9.898-7.38-20.948-10.14-33.148v.23c.46-1.611 1.15-3.223 1.61-4.834.69-1.842.46-3.683.23-5.525-.46-3.683-1.15-7.136-1.84-10.819-.46-1.842-.46-3.683-.92-5.525-.23-.921-.46-1.841-.93-2.762-.23-.46-.69-.921-1.38-1.381-.69-.23-1.38-.23-1.84 0h-.46c-.23 0-.46.23-.46.23-.23.23-.46.46-.69.921s-.23 1.151-.46 1.611v2.993c0 1.841.23 3.913.46 5.755 0 1.151.23 2.302.23 3.453s0 2.301-.23 2.992c0 .23-.23.23 0 .23l-.23-.23c-.23-.23-.47-.691-.7-1.151-.46-.921-.69-2.072-.92-2.992-.46-2.072-.92-4.144-1.15-6.446-.23-2.072-.46-4.374-.92-6.445-.23-2.072-.69-4.144-1.15-6.216s-.69-4.143-1.85-6.215c0-.23-.46-.691-.69-.921s-.46-.23-.92-.46c-.69-.23-1.38 0-1.84.23-1.16.691-1.39 1.842-1.62 2.993s-.23 2.071 0 3.222c.23.921.23 1.842.23 2.993.23 3.913.47 7.596.23 11.279 0 .921-.23 1.842-.23 2.763a1.76 1.76 0 0 1-.46 1.151c0 .23-.23.23-.23.46s-.23 0-.23.23c.23-.23 0 0 0-.23 0 0-.23-.23-.23-.46-.23-.461-.23-.691-.46-1.151-.23-.921-.46-1.612-.69-2.532-1.38-6.676-2.07-13.122-2.53-19.107 0-1.151 0-2.302-.47-3.453-.23-.46-.46-1.151-.92-1.611s-1.15-.691-1.61-.691h.23c-.92-.23-1.61.461-2.07.921s-.46 1.151-.69 1.842c-.23 1.151-.24 2.302-.24 3.453v6.215c0 3.913.93 7.136 1.39 9.898s.69 4.835.92 6.216c.23.69-.46 1.151-.69 1.151.46.23.23.23.23.23z" class="E"/><path d="M977.46 479.468s-6.452-.23-13.365 1.612c-11.982 3.222-32.49 15.653-33.181 30.846h14.978s-8.296 17.725-5.991 16.114c6.451-4.374 19.125-17.035 19.125-17.035l18.434-31.537z" class="D"/><g class="B"><path d="M1180.93 211.98c-.23 0-1.62-12.2-3-27.624-1.38-15.192-2.07-27.623-1.84-27.623s1.61 12.2 2.99 27.623 2.31 27.624 1.85 27.624zm65.44-54.326c.23.23-9.91 14.732-22.59 32.687-12.67 17.956-23.27 32.228-23.5 31.998s9.91-14.733 22.58-32.688c12.68-17.955 23.28-32.228 23.51-31.997zm27.19 66.296c0 .231-11.76 2.993-26.27 5.986-14.52 2.992-26.5 5.064-26.5 4.834s11.75-2.993 26.27-5.985c14.74-2.993 26.5-5.295 26.5-4.835z"/></g><path d="M489.881 540.01L408.31 958.507l-10.599 54.783 544.031-2.76c24.425-.23 46.085-21.868 53.919-53.865l96.549-395.017c5.99-24.401-7.14-49.722-25.58-49.722l-550.481.69c-12.443-.23-23.043 11.05-26.268 27.394z" fill="#2f3e4d"/><path d="M889.665 930.192L832.06 466.577c-2.305-19.106-17.513-33.148-35.486-33.148l-126.272.46c-9.447 0-18.204 3.913-24.886 11.05l-59.91 63.764-351.166 1.841c-21.43 0-38.02 20.488-35.025 43.277l53.459 428.626c2.304 18.873 17.512 33.153 35.255 33.153l612.006-1.16c68.205 1.39 74.657-18.642 74.657-18.642-78.114 16.802-85.027-65.606-85.027-65.606z" class="G"/><g class="C"><path d="M377.473 806.341h-19.501l-25.967-39.2v39.2h-19.501v-70.143h19.501l25.967 39.698v-39.698h19.501v70.143zm48.29.697c-6.566 0-12.602-1.526-18.108-4.577a35.34 35.34 0 0 1-13.133-12.835c-3.183-5.505-4.775-11.707-4.775-18.605s1.592-13.067 4.775-18.506c3.25-5.505 7.628-9.783 13.133-12.834s11.542-4.577 18.108-4.577c6.633 0 12.669 1.526 18.108 4.577 5.505 3.051 9.85 7.329 13.034 12.834 3.183 5.439 4.775 11.608 4.775 18.506s-1.592 13.1-4.775 18.605c-3.184 5.439-7.529 9.717-13.034 12.835-5.505 3.051-11.541 4.577-18.108 4.577zm0-18.108c4.975 0 8.888-1.625 11.74-4.875 2.919-3.25 4.378-7.595 4.378-13.034 0-5.572-1.459-9.949-4.378-13.133-2.852-3.25-6.765-4.875-11.74-4.875-5.041 0-8.987 1.625-11.84 4.875-2.852 3.184-4.278 7.561-4.278 13.133 0 5.505 1.426 9.883 4.278 13.133 2.853 3.184 6.799 4.776 11.84 4.776zm98.592-52.732c7.363 0 13.797 1.493 19.302 4.478 5.572 2.918 9.85 7.03 12.835 12.337s4.477 11.375 4.477 18.207c0 6.766-1.526 12.801-4.577 18.108-2.985 5.306-7.263 9.485-12.835 12.536-5.505 2.985-11.906 4.477-19.202 4.477h-27.758v-70.143h27.758zm-1.492 52.931c5.704 0 10.181-1.559 13.431-4.676s4.876-7.529 4.876-13.233c0-5.771-1.625-10.215-4.876-13.332-3.25-3.184-7.727-4.776-13.431-4.776h-6.766v36.017h6.766zm94.823 5.77h-24.873l-3.781 11.442h-20.495l25.57-70.143h22.485l25.47 70.143h-20.595l-3.781-11.442zm-4.875-14.924l-7.561-22.684-7.462 22.684h15.023zm91.991-43.777v15.521h-18.704v54.622h-19.501v-54.622h-18.506v-15.521h56.711zm55.142 58.701h-24.873l-3.781 11.442h-20.495l25.569-70.143h22.486l25.47 70.143h-20.595l-3.781-11.442zm-4.875-14.924l-7.561-22.684-7.462 22.684h15.023z"/></g></g><defs><clipPath id="A"><path fill="#fff" transform="translate(0 .199)" d="M0 0h1386v1020H0z"/></clipPath><path id="B" d="M378.815 451.615c.23.23-42.859 29.465-96.317 64.915l-97.009 63.995c-.23-.231 42.859-29.466 96.317-64.916l97.009-63.994z"/></defs></svg>